<?xml version="1.0" standalone="no"?>
<!DOCTYPE svg PUBLIC "-//W3C//DTD SVG 20010904//EN"
 "http://www.w3.org/TR/2001/REC-SVG-20010904/DTD/svg10.dtd">
<svg version="1.0" xmlns="http://www.w3.org/2000/svg"
 width="128.000000pt" height="128.000000pt" viewBox="0 0 128.000000 128.000000"
 preserveAspectRatio="xMidYMid meet">
<metadata>
Created by potrace 1.14, written by Peter Selinger 2001-2017
</metadata>
<g transform="translate(0.000000,128.000000) scale(0.100000,-0.100000)"
fill="#000000" stroke="none">
<path d="M475 1256 c-118 -32 -199 -79 -285 -166 -123 -124 -180 -254 -185
-425 -4 -125 12 -202 66 -312 71 -148 211 -267 378 -323 84 -28 229 -35 322
-15 201 41 378 190 460 383 36 88 44 136 43 262 -1 166 -64 312 -189 435 -90
89 -175 136 -315 172 -8 2 -60 6 -115 8 -81 3 -116 -1 -180 -19z"/>
</g>
</svg>
